<svg version="1.1" width="641" height="960" xmlns="http://www.w3.org/2000/svg">
<rect x="0" y="0" width="641" height="960" fill="#2e2824" />
<g transform="scale(3.74854, 3.75)">
<path d="M 78 89 L 163 147 L 46 122 Z" fill="#ffcd95" fill-opacity="0.501961" />
<path d="M 170 -16 L 63 5 L 186 198 Z" fill="#000000" fill-opacity="0.501961" />
<path d="M 28 111 L 162 271 L 142 144 Z" fill="#7a4a19" fill-opacity="0.501961" />
<path d="M -16 2 L 19 232 L 85 -16 Z" fill="#2a425c" fill-opacity="0.501961" />
<path d="M -16 198 L 141 185 L 10 271 Z" fill="#000000" fill-opacity="0.501961" />
<path d="M 54 101 L 112 148 L 125 109 Z" fill="#d1a376" fill-opacity="0.501961" />
<path d="M 67 98 L 148 114 L 53 -12 Z" fill="#121e2a" fill-opacity="0.501961" />
<path d="M 152 190 L 39 271 L 159 271 Z" fill="#7b4107" fill-opacity="0.501961" />
<path d="M 66 -11 L 186 161 L 186 -11 Z" fill="#000000" fill-opacity="0.501961" />
<path d="M 59 156 L 46 271 L 96 166 Z" fill="#020000" fill-opacity="0.501961" />
<path d="M 183 119 L 141 152 L 171 271 Z" fill="#00030d" fill-opacity="0.501961" />
<path d="M 84 239 L 130 143 L 135 207 Z" fill="#220900" fill-opacity="0.501961" />
<path d="M 84 148 L 63 156 L 57 137 Z" fill="#b19b80" fill-opacity="0.501961" />
<path d="M 135 153 L 159 211 L 141 207 Z" fill="#ae753e" fill-opacity="0.501961" />
<path d="M 76 142 L 99 100 L 163 144 Z" fill="#a27d56" fill-opacity="0.501961" />
<path d="M 67 143 L 80 135 L 59 114 Z" fill="#000000" fill-opacity="0.501961" />
<path d="M 102 175 L 102 198 L 93 178 Z" fill="#c6a984" fill-opacity="0.501961" />
<path d="M 53 112 L -16 -16 L 94 79 Z" fill="#303c48" fill-opacity="0.501961" />
<path d="M 75 97 L 55 113 L 99 131 Z" fill="#dbb094" fill-opacity="0.501961" />
<path d="M 56 123 L -16 209 L 50 207 Z" fill="#222e3d" fill-opacity="0.501961" />
<path d="M 99 135 L 145 148 L 128 160 Z" fill="#221001" fill-opacity="0.501961" />
<path d="M 95 109 L 68 107 L 88 121 Z" fill="#84552b" fill-opacity="0.501961" />
<path d="M 99 192 L 145 268 L 69 232 Z" fill="#3b1b00" fill-opacity="0.501961" />
<path d="M 51 271 L 82 237 L 107 262 Z" fill="#8f633b" fill-opacity="0.501961" />
<path d="M 127 114 L 96 116 L 119 137 Z" fill="#d8ae81" fill-opacity="0.501961" />
<path d="M 136 131 L 109 95 L 183 142 Z" fill="#0e161d" fill-opacity="0.501961" />
<path d="M 94 64 L 58 96 L 115 105 Z" fill="#1e252d" fill-opacity="0.501961" />
<path d="M 164 271 L 186 135 L 147 144 Z" fill="#080e13" fill-opacity="0.501961" />
<path d="M 126 145 L 79 171 L 91 129 Z" fill="#6d4a28" fill-opacity="0.501961" />
<path d="M 100 208 L 64 228 L 55 153 Z" fill="#040000" fill-opacity="0.501961" />
<path d="M -16 149 L 42 87 L 58 175 Z" fill="#343d48" fill-opacity="0.501961" />
<path d="M 176 1 L 180 127 L 91 -16 Z" fill="#000000" fill-opacity="0.501961" />
<path d="M 68 -16 L 24 76 L -13 -16 Z" fill="#374352" fill-opacity="0.501961" />
<path d="M 146 193 L 91 271 L 110 201 Z" fill="#58330a" fill-opacity="0.501961" />
<path d="M 33 229 L 64 271 L -16 250 Z" fill="#000109" fill-opacity="0.501961" />
<path d="M 63 45 L 161 116 L 74 -16 Z" fill="#0f1316" fill-opacity="0.501961" />
<path d="M 32 150 L 70 86 L 58 -2 Z" fill="#282f39" fill-opacity="0.501961" />
<path d="M 60 143 L 67 154 L 65 134 Z" fill="#cea582" fill-opacity="0.501961" />
<path d="M 120 104 L 112 114 L 102 115 Z" fill="#4b2300" fill-opacity="0.501961" />
<path d="M 65 140 L 66 164 L 75 141 Z" fill="#4c442f" fill-opacity="0.501961" />
<path d="M 47 271 L 57 236 L 108 206 Z" fill="#3c1f01" fill-opacity="0.501961" />
<path d="M 60 114 L 53 129 L 89 149 Z" fill="#2a1c10" fill-opacity="0.501961" />
<path d="M 164 139 L 136 146 L 148 188 Z" fill="#191b20" fill-opacity="0.501961" />
<path d="M 130 140 L 144 134 L 161 142 Z" fill="#b18b64" fill-opacity="0.501961" />
<path d="M 69 102 L 57 108 L 75 108 Z" fill="#e6d2c3" fill-opacity="0.501961" />
<path d="M 57 197 L -10 248 L 35 159 Z" fill="#191f27" fill-opacity="0.501961" />
<path d="M 115 189 L 141 144 L 127 144 Z" fill="#0d0400" fill-opacity="0.501961" />
<path d="M 106 104 L 115 112 L 86 104 Z" fill="#ddab7b" fill-opacity="0.501961" />
<path d="M 103 204 L 96 183 L 89 192 Z" fill="#4d3d2f" fill-opacity="0.501961" />
<path d="M 111 169 L 113 186 L 96 175 Z" fill="#8f5e2d" fill-opacity="0.501961" />
<path d="M 138 133 L 113 151 L 127 120 Z" fill="#8c6039" fill-opacity="0.501961" />
<path d="M 84 122 L 93 121 L 97 130 Z" fill="#ebe4d7" fill-opacity="0.501961" />
</g>
</svg>
