<svg version="1.1" width="718" height="960" xmlns="http://www.w3.org/2000/svg">
<rect x="0" y="0" width="718" height="960" fill="#ac9c93" />
<g transform="scale(3.75916, 3.75)">
<path d="M 189 270 L 30 244 L 98 58 Z" fill="#5a422f" fill-opacity="0.501961" />
<path d="M 206 176 L -16 -4 L 206 -1 Z" fill="#f1e1db" fill-opacity="0.501961" />
<path d="M 116 19 L 107 271 L 57 100 Z" fill="#735843" fill-opacity="0.501961" />
<path d="M 195 116 L 205 256 L 91 182 Z" fill="#d1b7ac" fill-opacity="0.501961" />
<path d="M 53 95 L -1 131 L 31 173 Z" fill="#dae9f3" fill-opacity="0.501961" />
<path d="M 186 239 L 26 215 L 154 271 Z" fill="#3a362e" fill-opacity="0.501961" />
<path d="M 110 65 L -16 2 L -8 82 Z" fill="#d5cbca" fill-opacity="0.501961" />
<path d="M 165 180 L 28 87 L 120 78 Z" fill="#95735c" fill-opacity="0.501961" />
<path d="M 115 130 L 142 97 L 33 129 Z" fill="#cbb4a9" fill-opacity="0.501961" />
<path d="M 51 219 L 59 189 L 85 202 Z" fill="#ccc7cd" fill-opacity="0.501961" />
<path d="M 125 18 L 143 114 L 206 182 Z" fill="#fbeae0" fill-opacity="0.501961" />
<path d="M -16 121 L -4 152 L 28 168 Z" fill="#312611" fill-opacity="0.501961" />
<path d="M 91 234 L 107 133 L 70 130 Z" fill="#4a3d31" fill-opacity="0.501961" />
<path d="M 16 150 L 55 115 L 27 116 Z" fill="#767e84" fill-opacity="0.501961" />
<path d="M 173 111 L 206 193 L 185 271 Z" fill="#e6d5d0" fill-opacity="0.501961" />
<path d="M 104 45 L 106 61 L 140 63 Z" fill="#635544" fill-opacity="0.501961" />
<path d="M 93 -2 L 206 69 L 187 -16 Z" fill="#e0d9d8" fill-opacity="0.501961" />
<path d="M -2 130 L 39 124 L 9 146 Z" fill="#fffeff" fill-opacity="0.501961" />
<path d="M 83 77 L 80 114 L 56 120 Z" fill="#4b3a2c" fill-opacity="0.501961" />
<path d="M 62 249 L -16 151 L -14 247 Z" fill="#b1a7a4" fill-opacity="0.501961" />
<path d="M 135 144 L 84 149 L 135 112 Z" fill="#654834" fill-opacity="0.501961" />
<path d="M 92 187 L 112 139 L 163 239 Z" fill="#a08675" fill-opacity="0.501961" />
<path d="M 106 7 L 89 72 L 52 -16 Z" fill="#dfd7d7" fill-opacity="0.501961" />
<path d="M 169 233 L 197 271 L 148 242 Z" fill="#282720" fill-opacity="0.501961" />
<path d="M 100 39 L 113 27 L 110 13 Z" fill="#93542b" fill-opacity="0.501961" />
<path d="M 139 258 L 81 271 L 55 201 Z" fill="#685c51" fill-opacity="0.501961" />
<path d="M 40 158 L 30 167 L 6 142 Z" fill="#fffdfe" fill-opacity="0.501961" />
<path d="M 56 151 L 49 103 L 65 127 Z" fill="#d1ced5" fill-opacity="0.501961" />
<path d="M 84 165 L 61 139 L 29 234 Z" fill="#8c7a6d" fill-opacity="0.501961" />
<path d="M 157 217 L 161 201 L 115 174 Z" fill="#7e6552" fill-opacity="0.501961" />
<path d="M 103 82 L 134 75 L 106 93 Z" fill="#654835" fill-opacity="0.501961" />
<path d="M 126 66 L 174 132 L 111 101 Z" fill="#d8bfb4" fill-opacity="0.501961" />
<path d="M 33 122 L 20 128 L 29 113 Z" fill="#374145" fill-opacity="0.501961" />
<path d="M 76 240 L 146 245 L 139 210 Z" fill="#534538" fill-opacity="0.501961" />
<path d="M 49 204 L 75 223 L 47 213 Z" fill="#c6c1c6" fill-opacity="0.501961" />
<path d="M 134 57 L 155 -5 L 104 42 Z" fill="#e1d4cf" fill-opacity="0.501961" />
<path d="M 68 188 L 90 184 L 96 207 Z" fill="#2b2c27" fill-opacity="0.501961" />
<path d="M 35 135 L 43 153 L 52 136 Z" fill="#5a6d79" fill-opacity="0.501961" />
<path d="M 147 237 L 138 211 L 206 221 Z" fill="#b9a69f" fill-opacity="0.501961" />
<path d="M 147 187 L 114 155 L 149 169 Z" fill="#cab8b3" fill-opacity="0.501961" />
<path d="M 58 199 L 71 193 L 85 213 Z" fill="#d8cacb" fill-opacity="0.501961" />
<path d="M 155 252 L 70 271 L 40 242 Z" fill="#8b7b6d" fill-opacity="0.501961" />
<path d="M 47 138 L 32 154 L 25 148 Z" fill="#fdf8f8" fill-opacity="0.501961" />
<path d="M 106 114 L 118 113 L 104 83 Z" fill="#6f4a32" fill-opacity="0.501961" />
<path d="M 191 137 L 183 100 L 150 69 Z" fill="#b19e94" fill-opacity="0.501961" />
<path d="M 77 129 L 115 136 L 50 153 Z" fill="#4e3f34" fill-opacity="0.501961" />
<path d="M 60 88 L 19 89 L -6 134 Z" fill="#91887d" fill-opacity="0.501961" />
<path d="M 174 210 L 138 180 L 159 136 Z" fill="#b1998e" fill-opacity="0.501961" />
<path d="M 70 133 L 8 179 L 2 219 Z" fill="#beb5b3" fill-opacity="0.501961" />
<path d="M 85 73 L -16 61 L 6 -16 Z" fill="#c6b9b5" fill-opacity="0.501961" />
<path d="M 49 104 L 30 108 L 34 120 Z" fill="#f6edea" fill-opacity="0.501961" />
<path d="M 23 153 L 20 141 L 28 133 Z" fill="#505b61" fill-opacity="0.501961" />
<path d="M 137 189 L 124 236 L 141 236 Z" fill="#765e4e" fill-opacity="0.501961" />
<path d="M 136 45 L 143 47 L 153 35 Z" fill="#ae724a" fill-opacity="0.501961" />
<path d="M 140 133 L 135 97 L 188 172 Z" fill="#d4b5a5" fill-opacity="0.501961" />
<path d="M 27 134 L 69 137 L 80 115 Z" fill="#b6adae" fill-opacity="0.501961" />
<path d="M 86 108 L 85 69 L 124 51 Z" fill="#af8c70" fill-opacity="0.501961" />
<path d="M 124 61 L 128 84 L 133 59 Z" fill="#917b6a" fill-opacity="0.501961" />
<path d="M 121 58 L 111 66 L 127 78 Z" fill="#ece0df" fill-opacity="0.501961" />
<path d="M 54 128 L 62 98 L 50 106 Z" fill="#d9d0ce" fill-opacity="0.501961" />
<path d="M 85 245 L 42 206 L 38 223 Z" fill="#595043" fill-opacity="0.501961" />
<path d="M 50 116 L 48 108 L 47 114 Z" fill="#000000" fill-opacity="0.501961" />
<path d="M 147 157 L 99 142 L 154 141 Z" fill="#8c6954" fill-opacity="0.501961" />
<path d="M 64 144 L 60 196 L 31 169 Z" fill="#a18f83" fill-opacity="0.501961" />
<path d="M 91 224 L 71 193 L 90 205 Z" fill="#ac9282" fill-opacity="0.501961" />
<path d="M 20 115 L 26 122 L -1 135 Z" fill="#f4f0f1" fill-opacity="0.501961" />
<path d="M 53 80 L 49 104 L 91 76 Z" fill="#816f5e" fill-opacity="0.501961" />
<path d="M 59 100 L 69 96 L 85 101 Z" fill="#cba78c" fill-opacity="0.501961" />
<path d="M 101 271 L 103 229 L 62 207 Z" fill="#625448" fill-opacity="0.501961" />
<path d="M 56 208 L 85 229 L 73 229 Z" fill="#a18e84" fill-opacity="0.501961" />
<path d="M 201 271 L 177 245 L 196 176 Z" fill="#c2aba2" fill-opacity="0.501961" />
<path d="M 144 249 L 133 247 L 151 217 Z" fill="#615041" fill-opacity="0.501961" />
<path d="M 81 74 L 12 122 L 56 63 Z" fill="#a19288" fill-opacity="0.501961" />
<path d="M 147 211 L 140 208 L 145 230 Z" fill="#d5c7c8" fill-opacity="0.501961" />
<path d="M 39 150 L 24 147 L 33 133 Z" fill="#f2eeee" fill-opacity="0.501961" />
<path d="M 110 154 L 82 127 L 140 129 Z" fill="#705543" fill-opacity="0.501961" />
<path d="M 24 163 L 37 164 L 54 147 Z" fill="#e8e9eb" fill-opacity="0.501961" />
<path d="M 21 129 L 23 129 L 21 125 Z" fill="#000000" fill-opacity="0.501961" />
<path d="M 96 189 L 54 193 L 105 150 Z" fill="#715c4b" fill-opacity="0.501961" />
<path d="M 74 116 L 66 108 L 58 117 Z" fill="#1e2526" fill-opacity="0.501961" />
<path d="M 176 111 L 137 52 L 132 95 Z" fill="#eedfd7" fill-opacity="0.501961" />
<path d="M 137 241 L 98 239 L 118 227 Z" fill="#31302b" fill-opacity="0.501961" />
<path d="M 160 238 L 169 207 L 152 193 Z" fill="#927b6c" fill-opacity="0.501961" />
<path d="M 133 222 L 124 186 L 108 179 Z" fill="#b6a39d" fill-opacity="0.501961" />
<path d="M 117 132 L 137 109 L 92 131 Z" fill="#a78873" fill-opacity="0.501961" />
<path d="M 126 40 L 140 38 L 119 27 Z" fill="#fffff6" fill-opacity="0.501961" />
<path d="M -16 78 L 86 63 L -16 108 Z" fill="#b5aaa4" fill-opacity="0.501961" />
<path d="M 51 146 L 50 138 L 45 133 Z" fill="#28363c" fill-opacity="0.501961" />
<path d="M 37 157 L 36 151 L 52 143 Z" fill="#586a75" fill-opacity="0.501961" />
<path d="M 86 74 L 81 96 L 63 95 Z" fill="#604e3c" fill-opacity="0.501961" />
<path d="M 25 140 L 51 122 L 49 132 Z" fill="#ceced4" fill-opacity="0.501961" />
<path d="M 74 236 L 58 219 L 96 240 Z" fill="#373631" fill-opacity="0.501961" />
<path d="M 29 137 L 31 137 L 28 134 Z" fill="#000000" fill-opacity="0.501961" />
<path d="M 16 137 L 38 117 L 30 132 Z" fill="#f1edeb" fill-opacity="0.501961" />
<path d="M 51 120 L 38 124 L 29 136 Z" fill="#606c73" fill-opacity="0.501961" />
<path d="M 198 178 L 160 119 L 176 172 Z" fill="#e5d3cb" fill-opacity="0.501961" />
<path d="M 96 133 L 95 160 L 70 130 Z" fill="#3f362f" fill-opacity="0.501961" />
<path d="M 28 136 L 13 144 L 19 146 Z" fill="#49555c" fill-opacity="0.501961" />
<path d="M 50 253 L -16 224 L 0 157 Z" fill="#afa29c" fill-opacity="0.501961" />
<path d="M 66 212 L 55 200 L 48 203 Z" fill="#504b41" fill-opacity="0.501961" />
<path d="M 178 49 L 125 -9 L 81 5 Z" fill="#d0c3bd" fill-opacity="0.501961" />
<path d="M 99 202 L 90 161 L 139 238 Z" fill="#88715f" fill-opacity="0.501961" />
<path d="M 183 86 L 153 60 L 185 118 Z" fill="#d4cac7" fill-opacity="0.501961" />
<path d="M 150 151 L 149 164 L 177 180 Z" fill="#ccb7af" fill-opacity="0.501961" />
<path d="M 166 90 L 152 74 L 156 69 Z" fill="#a78770" fill-opacity="0.501961" />
<path d="M 169 170 L 161 162 L 168 162 Z" fill="#8b634b" fill-opacity="0.501961" />
<path d="M 78 127 L 50 138 L 49 129 Z" fill="#9f8f88" fill-opacity="0.501961" />
<path d="M 106 45 L 111 59 L 113 49 Z" fill="#39443e" fill-opacity="0.501961" />
<path d="M 132 175 L 96 182 L 106 148 Z" fill="#9d7f6a" fill-opacity="0.501961" />
<path d="M 188 220 L 206 242 L 191 191 Z" fill="#92857f" fill-opacity="0.501961" />
</g>
</svg>
